<mxfile host="Electron" agent="Mozilla/5.0 (Windows NT 10.0; Win64; x64) AppleWebKit/537.36 (KHTML, like Gecko) draw.io/24.7.8 Chrome/128.0.6613.36 Electron/32.0.1 Safari/537.36" version="24.7.8">
  <diagram id="JSeTmKmpEg_ac6eDD1_o" name="dd">
    <mxGraphModel dx="928" dy="713" grid="1" gridSize="10" guides="1" tooltips="1" connect="1" arrows="1" fold="1" page="1" pageScale="1" pageWidth="827" pageHeight="1169" math="0" shadow="0">
      <root>
        <mxCell id="0" />
        <mxCell id="1" parent="0" />
        <mxCell id="6sAHpHZGAtFHMqBKG0Os-1" value="Entity&amp;nbsp;name: Vlogger" style="rounded=0;whiteSpace=wrap;html=1;align=left;fontFamily=Trebuchet MS;fontStyle=1;fontSize=14;fillColor=#eeeeee;strokeColor=#36393d;spacing=5;" parent="1" vertex="1">
          <mxGeometry x="40" y="40" width="550" height="40" as="geometry" />
        </mxCell>
        <mxCell id="6sAHpHZGAtFHMqBKG0Os-2" value="Attribute name" style="rounded=0;whiteSpace=wrap;html=1;align=left;fontStyle=1;fontFamily=Trebuchet MS;fontSize=14;fillColor=#eeeeee;strokeColor=#36393d;spacing=5;" parent="1" vertex="1">
          <mxGeometry x="40" y="80" width="160" height="40" as="geometry" />
        </mxCell>
        <mxCell id="6sAHpHZGAtFHMqBKG0Os-3" value="vloggerID" style="rounded=0;whiteSpace=wrap;html=1;align=left;fontFamily=Trebuchet MS;fontSize=14;spacing=5;" parent="1" vertex="1">
          <mxGeometry x="40" y="120" width="160" height="40" as="geometry" />
        </mxCell>
        <mxCell id="6sAHpHZGAtFHMqBKG0Os-4" value="forename" style="rounded=0;whiteSpace=wrap;html=1;align=left;fontFamily=Trebuchet MS;fontSize=14;spacing=5;" parent="1" vertex="1">
          <mxGeometry x="40" y="160" width="160" height="40" as="geometry" />
        </mxCell>
        <mxCell id="6sAHpHZGAtFHMqBKG0Os-5" value="username" style="rounded=0;whiteSpace=wrap;html=1;align=left;fontFamily=Trebuchet MS;fontSize=14;spacing=5;" parent="1" vertex="1">
          <mxGeometry x="40" y="240" width="160" height="40" as="geometry" />
        </mxCell>
        <mxCell id="6sAHpHZGAtFHMqBKG0Os-6" value="expertise&lt;br style=&quot;font-size: 14px;&quot;&gt;" style="rounded=0;whiteSpace=wrap;html=1;align=left;fontFamily=Trebuchet MS;fontSize=14;spacing=5;verticalAlign=top;" parent="1" vertex="1">
          <mxGeometry x="40" y="280" width="160" height="100" as="geometry" />
        </mxCell>
        <mxCell id="6sAHpHZGAtFHMqBKG0Os-7" value="Key&lt;br style=&quot;font-size: 14px;&quot;&gt;" style="rounded=0;whiteSpace=wrap;html=1;align=left;fontStyle=1;fontFamily=Trebuchet MS;fontSize=14;fillColor=#eeeeee;strokeColor=#36393d;spacing=5;" parent="1" vertex="1">
          <mxGeometry x="200" y="80" width="40" height="40" as="geometry" />
        </mxCell>
        <mxCell id="6sAHpHZGAtFHMqBKG0Os-8" value="PK" style="rounded=0;whiteSpace=wrap;html=1;align=left;fontStyle=0;fontFamily=Trebuchet MS;fontSize=14;spacing=5;" parent="1" vertex="1">
          <mxGeometry x="200" y="120" width="40" height="40" as="geometry" />
        </mxCell>
        <mxCell id="6sAHpHZGAtFHMqBKG0Os-9" value="" style="rounded=0;whiteSpace=wrap;html=1;align=left;fontStyle=0;fontFamily=Trebuchet MS;fontSize=14;spacing=5;" parent="1" vertex="1">
          <mxGeometry x="200" y="160" width="40" height="40" as="geometry" />
        </mxCell>
        <mxCell id="6sAHpHZGAtFHMqBKG0Os-10" value="" style="rounded=0;whiteSpace=wrap;html=1;align=left;fontStyle=0;fontFamily=Trebuchet MS;fontSize=14;spacing=5;" parent="1" vertex="1">
          <mxGeometry x="200" y="240" width="40" height="40" as="geometry" />
        </mxCell>
        <mxCell id="6sAHpHZGAtFHMqBKG0Os-11" value="" style="rounded=0;whiteSpace=wrap;html=1;align=left;fontStyle=0;fontFamily=Trebuchet MS;fontSize=14;spacing=5;verticalAlign=top;" parent="1" vertex="1">
          <mxGeometry x="200" y="280" width="40" height="100" as="geometry" />
        </mxCell>
        <mxCell id="6sAHpHZGAtFHMqBKG0Os-13" value="Type" style="rounded=0;whiteSpace=wrap;html=1;align=left;fontStyle=1;fontFamily=Trebuchet MS;fontSize=14;fillColor=#eeeeee;strokeColor=#36393d;spacing=5;" parent="1" vertex="1">
          <mxGeometry x="240" y="80" width="60" height="40" as="geometry" />
        </mxCell>
        <mxCell id="6sAHpHZGAtFHMqBKG0Os-14" value="number" style="rounded=0;whiteSpace=wrap;html=1;align=left;fontStyle=0;fontFamily=Trebuchet MS;fontSize=14;spacing=5;" parent="1" vertex="1">
          <mxGeometry x="240" y="120" width="60" height="40" as="geometry" />
        </mxCell>
        <mxCell id="6sAHpHZGAtFHMqBKG0Os-15" value="text" style="rounded=0;whiteSpace=wrap;html=1;align=left;fontStyle=0;fontFamily=Trebuchet MS;fontSize=14;spacing=5;" parent="1" vertex="1">
          <mxGeometry x="240" y="160" width="60" height="40" as="geometry" />
        </mxCell>
        <mxCell id="6sAHpHZGAtFHMqBKG0Os-16" value="text" style="rounded=0;whiteSpace=wrap;html=1;align=left;fontStyle=0;fontFamily=Trebuchet MS;fontSize=14;spacing=5;" parent="1" vertex="1">
          <mxGeometry x="240" y="240" width="60" height="40" as="geometry" />
        </mxCell>
        <mxCell id="6sAHpHZGAtFHMqBKG0Os-17" value="text" style="rounded=0;whiteSpace=wrap;html=1;align=left;fontStyle=0;fontFamily=Trebuchet MS;fontSize=14;spacing=5;verticalAlign=top;" parent="1" vertex="1">
          <mxGeometry x="240" y="280" width="60" height="100" as="geometry" />
        </mxCell>
        <mxCell id="6sAHpHZGAtFHMqBKG0Os-18" value="Size" style="rounded=0;whiteSpace=wrap;html=1;align=left;fontStyle=1;fontFamily=Trebuchet MS;fontSize=14;fillColor=#eeeeee;strokeColor=#36393d;spacing=5;" parent="1" vertex="1">
          <mxGeometry x="300" y="80" width="60" height="40" as="geometry" />
        </mxCell>
        <mxCell id="6sAHpHZGAtFHMqBKG0Os-19" value="" style="rounded=0;whiteSpace=wrap;html=1;align=left;fontStyle=0;fontFamily=Trebuchet MS;fontSize=14;spacing=5;" parent="1" vertex="1">
          <mxGeometry x="300" y="120" width="60" height="40" as="geometry" />
        </mxCell>
        <mxCell id="6sAHpHZGAtFHMqBKG0Os-20" value="20" style="rounded=0;whiteSpace=wrap;html=1;align=left;fontStyle=0;fontFamily=Trebuchet MS;fontSize=14;spacing=5;" parent="1" vertex="1">
          <mxGeometry x="300" y="160" width="60" height="40" as="geometry" />
        </mxCell>
        <mxCell id="6sAHpHZGAtFHMqBKG0Os-21" value="6" style="rounded=0;whiteSpace=wrap;html=1;align=left;fontStyle=0;fontFamily=Trebuchet MS;fontSize=14;spacing=5;" parent="1" vertex="1">
          <mxGeometry x="300" y="240" width="60" height="40" as="geometry" />
        </mxCell>
        <mxCell id="6sAHpHZGAtFHMqBKG0Os-22" value="15" style="rounded=0;whiteSpace=wrap;html=1;align=left;fontStyle=0;fontFamily=Trebuchet MS;fontSize=14;spacing=5;verticalAlign=top;" parent="1" vertex="1">
          <mxGeometry x="300" y="280" width="60" height="100" as="geometry" />
        </mxCell>
        <mxCell id="6sAHpHZGAtFHMqBKG0Os-23" value="Required" style="rounded=0;whiteSpace=wrap;html=1;align=left;fontStyle=1;fontFamily=Trebuchet MS;fontSize=14;fillColor=#eeeeee;strokeColor=#36393d;spacing=5;" parent="1" vertex="1">
          <mxGeometry x="360" y="80" width="80" height="40" as="geometry" />
        </mxCell>
        <mxCell id="6sAHpHZGAtFHMqBKG0Os-24" value="Y" style="rounded=0;whiteSpace=wrap;html=1;align=left;fontStyle=0;fontFamily=Trebuchet MS;fontSize=14;spacing=5;verticalAlign=top;" parent="1" vertex="1">
          <mxGeometry x="360" y="280" width="80" height="100" as="geometry" />
        </mxCell>
        <mxCell id="6sAHpHZGAtFHMqBKG0Os-25" value="Y" style="rounded=0;whiteSpace=wrap;html=1;align=left;fontStyle=0;fontFamily=Trebuchet MS;fontSize=14;spacing=5;" parent="1" vertex="1">
          <mxGeometry x="360" y="120" width="80" height="40" as="geometry" />
        </mxCell>
        <mxCell id="6sAHpHZGAtFHMqBKG0Os-26" value="Y" style="rounded=0;whiteSpace=wrap;html=1;align=left;fontStyle=0;fontFamily=Trebuchet MS;fontSize=14;spacing=5;" parent="1" vertex="1">
          <mxGeometry x="360" y="160" width="80" height="40" as="geometry" />
        </mxCell>
        <mxCell id="6sAHpHZGAtFHMqBKG0Os-27" value="Y" style="rounded=0;whiteSpace=wrap;html=1;align=left;fontStyle=0;fontFamily=Trebuchet MS;fontSize=14;spacing=5;" parent="1" vertex="1">
          <mxGeometry x="360" y="240" width="80" height="40" as="geometry" />
        </mxCell>
        <mxCell id="6sAHpHZGAtFHMqBKG0Os-28" value="Validation" style="rounded=0;whiteSpace=wrap;html=1;align=left;fontStyle=1;fontFamily=Trebuchet MS;fontSize=14;fillColor=#eeeeee;strokeColor=#36393d;spacing=5;" parent="1" vertex="1">
          <mxGeometry x="440" y="80" width="150" height="40" as="geometry" />
        </mxCell>
        <mxCell id="6sAHpHZGAtFHMqBKG0Os-29" value="" style="rounded=0;whiteSpace=wrap;html=1;align=left;fontStyle=0;fontFamily=Trebuchet MS;fontSize=14;spacing=5;" parent="1" vertex="1">
          <mxGeometry x="440" y="120" width="150" height="40" as="geometry" />
        </mxCell>
        <mxCell id="6sAHpHZGAtFHMqBKG0Os-30" value="" style="rounded=0;whiteSpace=wrap;html=1;align=left;fontStyle=0;fontFamily=Trebuchet MS;fontSize=14;spacing=5;" parent="1" vertex="1">
          <mxGeometry x="440" y="160" width="150" height="40" as="geometry" />
        </mxCell>
        <mxCell id="6sAHpHZGAtFHMqBKG0Os-31" value="Length = 6" style="rounded=0;whiteSpace=wrap;html=1;align=left;fontStyle=0;fontFamily=Trebuchet MS;fontSize=14;spacing=5;" parent="1" vertex="1">
          <mxGeometry x="440" y="240" width="150" height="40" as="geometry" />
        </mxCell>
        <mxCell id="6sAHpHZGAtFHMqBKG0Os-32" value="Restricted choice: Programming, Gaming, Baking, Crafts, Makeup, Clothes" style="rounded=0;whiteSpace=wrap;html=1;align=left;fontStyle=0;fontFamily=Trebuchet MS;fontSize=14;spacing=5;verticalAlign=top;" parent="1" vertex="1">
          <mxGeometry x="440" y="280" width="150" height="100" as="geometry" />
        </mxCell>
        <mxCell id="6sAHpHZGAtFHMqBKG0Os-33" value="Entity&amp;nbsp;name: Video" style="rounded=0;whiteSpace=wrap;html=1;align=left;fontFamily=Trebuchet MS;fontStyle=1;fontSize=14;fillColor=#eeeeee;strokeColor=#36393d;spacing=5;" parent="1" vertex="1">
          <mxGeometry x="40" y="440" width="560" height="40" as="geometry" />
        </mxCell>
        <mxCell id="6sAHpHZGAtFHMqBKG0Os-34" value="Attribute name" style="rounded=0;whiteSpace=wrap;html=1;align=left;fontStyle=1;fontFamily=Trebuchet MS;fontSize=14;fillColor=#eeeeee;strokeColor=#36393d;spacing=5;" parent="1" vertex="1">
          <mxGeometry x="40" y="480" width="160" height="40" as="geometry" />
        </mxCell>
        <mxCell id="6sAHpHZGAtFHMqBKG0Os-35" value="videoID" style="rounded=0;whiteSpace=wrap;html=1;align=left;fontFamily=Trebuchet MS;fontSize=14;spacing=5;" parent="1" vertex="1">
          <mxGeometry x="40" y="520" width="160" height="40" as="geometry" />
        </mxCell>
        <mxCell id="6sAHpHZGAtFHMqBKG0Os-36" value="vloggerID" style="rounded=0;whiteSpace=wrap;html=1;align=left;fontFamily=Trebuchet MS;fontSize=14;spacing=5;" parent="1" vertex="1">
          <mxGeometry x="40" y="560" width="160" height="40" as="geometry" />
        </mxCell>
        <mxCell id="6sAHpHZGAtFHMqBKG0Os-37" value="videoName" style="rounded=0;whiteSpace=wrap;html=1;align=left;fontFamily=Trebuchet MS;fontSize=14;spacing=5;" parent="1" vertex="1">
          <mxGeometry x="40" y="600" width="160" height="40" as="geometry" />
        </mxCell>
        <mxCell id="6sAHpHZGAtFHMqBKG0Os-38" value="duration" style="rounded=0;whiteSpace=wrap;html=1;align=left;fontFamily=Trebuchet MS;fontSize=14;spacing=5;" parent="1" vertex="1">
          <mxGeometry x="40" y="640" width="160" height="40" as="geometry" />
        </mxCell>
        <mxCell id="6sAHpHZGAtFHMqBKG0Os-39" value="Key&lt;br style=&quot;font-size: 14px;&quot;&gt;" style="rounded=0;whiteSpace=wrap;html=1;align=left;fontStyle=1;fontFamily=Trebuchet MS;fontSize=14;fillColor=#eeeeee;strokeColor=#36393d;spacing=5;" parent="1" vertex="1">
          <mxGeometry x="200" y="480" width="40" height="40" as="geometry" />
        </mxCell>
        <mxCell id="6sAHpHZGAtFHMqBKG0Os-40" value="PK" style="rounded=0;whiteSpace=wrap;html=1;align=left;fontStyle=0;fontFamily=Trebuchet MS;fontSize=14;spacing=5;" parent="1" vertex="1">
          <mxGeometry x="200" y="520" width="40" height="40" as="geometry" />
        </mxCell>
        <mxCell id="6sAHpHZGAtFHMqBKG0Os-41" value="FK" style="rounded=0;whiteSpace=wrap;html=1;align=left;fontStyle=0;fontFamily=Trebuchet MS;fontSize=14;spacing=5;" parent="1" vertex="1">
          <mxGeometry x="200" y="560" width="40" height="40" as="geometry" />
        </mxCell>
        <mxCell id="6sAHpHZGAtFHMqBKG0Os-42" value="" style="rounded=0;whiteSpace=wrap;html=1;align=left;fontStyle=0;fontFamily=Trebuchet MS;fontSize=14;spacing=5;" parent="1" vertex="1">
          <mxGeometry x="200" y="600" width="40" height="40" as="geometry" />
        </mxCell>
        <mxCell id="6sAHpHZGAtFHMqBKG0Os-43" value="" style="rounded=0;whiteSpace=wrap;html=1;align=left;fontStyle=0;fontFamily=Trebuchet MS;fontSize=14;spacing=5;" parent="1" vertex="1">
          <mxGeometry x="200" y="640" width="40" height="40" as="geometry" />
        </mxCell>
        <mxCell id="6sAHpHZGAtFHMqBKG0Os-44" value="Type" style="rounded=0;whiteSpace=wrap;html=1;align=left;fontStyle=1;fontFamily=Trebuchet MS;fontSize=14;fillColor=#eeeeee;strokeColor=#36393d;spacing=5;" parent="1" vertex="1">
          <mxGeometry x="240" y="480" width="60" height="40" as="geometry" />
        </mxCell>
        <mxCell id="6sAHpHZGAtFHMqBKG0Os-45" value="number" style="rounded=0;whiteSpace=wrap;html=1;align=left;fontStyle=0;fontFamily=Trebuchet MS;fontSize=14;spacing=5;" parent="1" vertex="1">
          <mxGeometry x="240" y="520" width="60" height="40" as="geometry" />
        </mxCell>
        <mxCell id="6sAHpHZGAtFHMqBKG0Os-46" value="number" style="rounded=0;whiteSpace=wrap;html=1;align=left;fontStyle=0;fontFamily=Trebuchet MS;fontSize=14;spacing=5;" parent="1" vertex="1">
          <mxGeometry x="240" y="560" width="60" height="40" as="geometry" />
        </mxCell>
        <mxCell id="6sAHpHZGAtFHMqBKG0Os-47" value="text" style="rounded=0;whiteSpace=wrap;html=1;align=left;fontStyle=0;fontFamily=Trebuchet MS;fontSize=14;spacing=5;" parent="1" vertex="1">
          <mxGeometry x="240" y="600" width="60" height="40" as="geometry" />
        </mxCell>
        <mxCell id="6sAHpHZGAtFHMqBKG0Os-48" value="number" style="rounded=0;whiteSpace=wrap;html=1;align=left;fontStyle=0;fontFamily=Trebuchet MS;fontSize=14;spacing=5;" parent="1" vertex="1">
          <mxGeometry x="240" y="640" width="60" height="40" as="geometry" />
        </mxCell>
        <mxCell id="6sAHpHZGAtFHMqBKG0Os-49" value="Size" style="rounded=0;whiteSpace=wrap;html=1;align=left;fontStyle=1;fontFamily=Trebuchet MS;fontSize=14;fillColor=#eeeeee;strokeColor=#36393d;spacing=5;" parent="1" vertex="1">
          <mxGeometry x="300" y="480" width="60" height="40" as="geometry" />
        </mxCell>
        <mxCell id="6sAHpHZGAtFHMqBKG0Os-50" value="" style="rounded=0;whiteSpace=wrap;html=1;align=left;fontStyle=0;fontFamily=Trebuchet MS;fontSize=14;spacing=5;" parent="1" vertex="1">
          <mxGeometry x="300" y="520" width="60" height="40" as="geometry" />
        </mxCell>
        <mxCell id="6sAHpHZGAtFHMqBKG0Os-51" value="" style="rounded=0;whiteSpace=wrap;html=1;align=left;fontStyle=0;fontFamily=Trebuchet MS;fontSize=14;spacing=5;" parent="1" vertex="1">
          <mxGeometry x="300" y="560" width="60" height="40" as="geometry" />
        </mxCell>
        <mxCell id="6sAHpHZGAtFHMqBKG0Os-52" value="30" style="rounded=0;whiteSpace=wrap;html=1;align=left;fontStyle=0;fontFamily=Trebuchet MS;fontSize=14;spacing=5;" parent="1" vertex="1">
          <mxGeometry x="300" y="600" width="60" height="40" as="geometry" />
        </mxCell>
        <mxCell id="6sAHpHZGAtFHMqBKG0Os-53" value="" style="rounded=0;whiteSpace=wrap;html=1;align=left;fontStyle=0;fontFamily=Trebuchet MS;fontSize=14;spacing=5;" parent="1" vertex="1">
          <mxGeometry x="300" y="640" width="60" height="40" as="geometry" />
        </mxCell>
        <mxCell id="6sAHpHZGAtFHMqBKG0Os-54" value="Required" style="rounded=0;whiteSpace=wrap;html=1;align=left;fontStyle=1;fontFamily=Trebuchet MS;fontSize=14;fillColor=#eeeeee;strokeColor=#36393d;spacing=5;" parent="1" vertex="1">
          <mxGeometry x="360" y="480" width="80" height="40" as="geometry" />
        </mxCell>
        <mxCell id="6sAHpHZGAtFHMqBKG0Os-55" value="Y" style="rounded=0;whiteSpace=wrap;html=1;align=left;fontStyle=0;fontFamily=Trebuchet MS;fontSize=14;spacing=5;" parent="1" vertex="1">
          <mxGeometry x="360" y="640" width="80" height="40" as="geometry" />
        </mxCell>
        <mxCell id="6sAHpHZGAtFHMqBKG0Os-56" value="Y" style="rounded=0;whiteSpace=wrap;html=1;align=left;fontStyle=0;fontFamily=Trebuchet MS;fontSize=14;spacing=5;" parent="1" vertex="1">
          <mxGeometry x="360" y="520" width="80" height="40" as="geometry" />
        </mxCell>
        <mxCell id="6sAHpHZGAtFHMqBKG0Os-57" value="Y" style="rounded=0;whiteSpace=wrap;html=1;align=left;fontStyle=0;fontFamily=Trebuchet MS;fontSize=14;spacing=5;" parent="1" vertex="1">
          <mxGeometry x="360" y="560" width="80" height="40" as="geometry" />
        </mxCell>
        <mxCell id="6sAHpHZGAtFHMqBKG0Os-58" value="Y" style="rounded=0;whiteSpace=wrap;html=1;align=left;fontStyle=0;fontFamily=Trebuchet MS;fontSize=14;spacing=5;" parent="1" vertex="1">
          <mxGeometry x="360" y="600" width="80" height="40" as="geometry" />
        </mxCell>
        <mxCell id="6sAHpHZGAtFHMqBKG0Os-59" value="Validation" style="rounded=0;whiteSpace=wrap;html=1;align=left;fontStyle=1;fontFamily=Trebuchet MS;fontSize=14;fillColor=#eeeeee;strokeColor=#36393d;spacing=5;" parent="1" vertex="1">
          <mxGeometry x="440" y="480" width="160" height="40" as="geometry" />
        </mxCell>
        <mxCell id="6sAHpHZGAtFHMqBKG0Os-60" value="" style="rounded=0;whiteSpace=wrap;html=1;align=left;fontStyle=0;fontFamily=Trebuchet MS;fontSize=14;spacing=5;" parent="1" vertex="1">
          <mxGeometry x="440" y="520" width="160" height="40" as="geometry" />
        </mxCell>
        <mxCell id="6sAHpHZGAtFHMqBKG0Os-61" value="" style="rounded=0;whiteSpace=wrap;html=1;align=left;fontStyle=0;fontFamily=Trebuchet MS;fontSize=14;spacing=5;" parent="1" vertex="1">
          <mxGeometry x="440" y="560" width="160" height="40" as="geometry" />
        </mxCell>
        <mxCell id="6sAHpHZGAtFHMqBKG0Os-62" value="" style="rounded=0;whiteSpace=wrap;html=1;align=left;fontStyle=0;fontFamily=Trebuchet MS;fontSize=14;spacing=5;" parent="1" vertex="1">
          <mxGeometry x="440" y="600" width="160" height="40" as="geometry" />
        </mxCell>
        <mxCell id="6sAHpHZGAtFHMqBKG0Os-63" value="" style="rounded=0;whiteSpace=wrap;html=1;align=left;fontStyle=0;fontFamily=Trebuchet MS;fontSize=14;spacing=5;" parent="1" vertex="1">
          <mxGeometry x="440" y="640" width="160" height="40" as="geometry" />
        </mxCell>
        <mxCell id="6sAHpHZGAtFHMqBKG0Os-64" value="surname" style="rounded=0;whiteSpace=wrap;html=1;align=left;fontFamily=Trebuchet MS;fontSize=14;spacing=5;" parent="1" vertex="1">
          <mxGeometry x="40" y="200" width="160" height="40" as="geometry" />
        </mxCell>
        <mxCell id="6sAHpHZGAtFHMqBKG0Os-65" value="" style="rounded=0;whiteSpace=wrap;html=1;align=left;fontStyle=0;fontFamily=Trebuchet MS;fontSize=14;spacing=5;" parent="1" vertex="1">
          <mxGeometry x="200" y="200" width="40" height="40" as="geometry" />
        </mxCell>
        <mxCell id="6sAHpHZGAtFHMqBKG0Os-66" value="text" style="rounded=0;whiteSpace=wrap;html=1;align=left;fontStyle=0;fontFamily=Trebuchet MS;fontSize=14;spacing=5;" parent="1" vertex="1">
          <mxGeometry x="240" y="200" width="60" height="40" as="geometry" />
        </mxCell>
        <mxCell id="6sAHpHZGAtFHMqBKG0Os-67" value="20" style="rounded=0;whiteSpace=wrap;html=1;align=left;fontStyle=0;fontFamily=Trebuchet MS;fontSize=14;spacing=5;" parent="1" vertex="1">
          <mxGeometry x="300" y="200" width="60" height="40" as="geometry" />
        </mxCell>
        <mxCell id="6sAHpHZGAtFHMqBKG0Os-68" value="Y" style="rounded=0;whiteSpace=wrap;html=1;align=left;fontStyle=0;fontFamily=Trebuchet MS;fontSize=14;spacing=5;" parent="1" vertex="1">
          <mxGeometry x="360" y="200" width="80" height="40" as="geometry" />
        </mxCell>
        <mxCell id="6sAHpHZGAtFHMqBKG0Os-69" value="" style="rounded=0;whiteSpace=wrap;html=1;align=left;fontStyle=0;fontFamily=Trebuchet MS;fontSize=14;spacing=5;" parent="1" vertex="1">
          <mxGeometry x="440" y="200" width="150" height="40" as="geometry" />
        </mxCell>
        <mxCell id="6sAHpHZGAtFHMqBKG0Os-70" value="dateCreated" style="rounded=0;whiteSpace=wrap;html=1;align=left;fontFamily=Trebuchet MS;fontSize=14;spacing=5;" parent="1" vertex="1">
          <mxGeometry x="40" y="680" width="160" height="40" as="geometry" />
        </mxCell>
        <mxCell id="6sAHpHZGAtFHMqBKG0Os-71" value="content" style="rounded=0;whiteSpace=wrap;html=1;align=left;fontFamily=Trebuchet MS;fontSize=14;spacing=5;" parent="1" vertex="1">
          <mxGeometry x="40" y="720" width="160" height="40" as="geometry" />
        </mxCell>
        <mxCell id="6sAHpHZGAtFHMqBKG0Os-72" value="" style="rounded=0;whiteSpace=wrap;html=1;align=left;fontStyle=0;fontFamily=Trebuchet MS;fontSize=14;spacing=5;" parent="1" vertex="1">
          <mxGeometry x="200" y="680" width="40" height="40" as="geometry" />
        </mxCell>
        <mxCell id="6sAHpHZGAtFHMqBKG0Os-73" value="" style="rounded=0;whiteSpace=wrap;html=1;align=left;fontStyle=0;fontFamily=Trebuchet MS;fontSize=14;spacing=5;" parent="1" vertex="1">
          <mxGeometry x="200" y="720" width="40" height="40" as="geometry" />
        </mxCell>
        <mxCell id="6sAHpHZGAtFHMqBKG0Os-74" value="date" style="rounded=0;whiteSpace=wrap;html=1;align=left;fontStyle=0;fontFamily=Trebuchet MS;fontSize=14;spacing=5;" parent="1" vertex="1">
          <mxGeometry x="240" y="680" width="60" height="40" as="geometry" />
        </mxCell>
        <mxCell id="6sAHpHZGAtFHMqBKG0Os-75" value="text" style="rounded=0;whiteSpace=wrap;html=1;align=left;fontStyle=0;fontFamily=Trebuchet MS;fontSize=14;spacing=5;" parent="1" vertex="1">
          <mxGeometry x="240" y="720" width="60" height="40" as="geometry" />
        </mxCell>
        <mxCell id="6sAHpHZGAtFHMqBKG0Os-76" value="" style="rounded=0;whiteSpace=wrap;html=1;align=left;fontStyle=0;fontFamily=Trebuchet MS;fontSize=14;spacing=5;" parent="1" vertex="1">
          <mxGeometry x="300" y="680" width="60" height="40" as="geometry" />
        </mxCell>
        <mxCell id="6sAHpHZGAtFHMqBKG0Os-77" value="40" style="rounded=0;whiteSpace=wrap;html=1;align=left;fontStyle=0;fontFamily=Trebuchet MS;fontSize=14;spacing=5;" parent="1" vertex="1">
          <mxGeometry x="300" y="720" width="60" height="40" as="geometry" />
        </mxCell>
        <mxCell id="6sAHpHZGAtFHMqBKG0Os-78" value="Y" style="rounded=0;whiteSpace=wrap;html=1;align=left;fontStyle=0;fontFamily=Trebuchet MS;fontSize=14;spacing=5;" parent="1" vertex="1">
          <mxGeometry x="360" y="720" width="80" height="40" as="geometry" />
        </mxCell>
        <mxCell id="6sAHpHZGAtFHMqBKG0Os-79" value="Y" style="rounded=0;whiteSpace=wrap;html=1;align=left;fontStyle=0;fontFamily=Trebuchet MS;fontSize=14;spacing=5;" parent="1" vertex="1">
          <mxGeometry x="360" y="680" width="80" height="40" as="geometry" />
        </mxCell>
        <mxCell id="6sAHpHZGAtFHMqBKG0Os-80" value="" style="rounded=0;whiteSpace=wrap;html=1;align=left;fontStyle=0;fontFamily=Trebuchet MS;fontSize=14;spacing=5;" parent="1" vertex="1">
          <mxGeometry x="440" y="680" width="160" height="40" as="geometry" />
        </mxCell>
        <mxCell id="6sAHpHZGAtFHMqBKG0Os-81" value="" style="rounded=0;whiteSpace=wrap;html=1;align=left;fontStyle=0;fontFamily=Trebuchet MS;fontSize=14;spacing=5;" parent="1" vertex="1">
          <mxGeometry x="440" y="720" width="160" height="40" as="geometry" />
        </mxCell>
        <mxCell id="6sAHpHZGAtFHMqBKG0Os-82" value="rating&lt;span style=&quot;white-space: pre&quot;&gt;&#x9;&lt;/span&gt;" style="rounded=0;whiteSpace=wrap;html=1;align=left;fontFamily=Trebuchet MS;fontSize=14;spacing=5;" parent="1" vertex="1">
          <mxGeometry x="40" y="760" width="160" height="40" as="geometry" />
        </mxCell>
        <mxCell id="6sAHpHZGAtFHMqBKG0Os-83" value="" style="rounded=0;whiteSpace=wrap;html=1;align=left;fontStyle=0;fontFamily=Trebuchet MS;fontSize=14;spacing=5;" parent="1" vertex="1">
          <mxGeometry x="200" y="760" width="40" height="40" as="geometry" />
        </mxCell>
        <mxCell id="6sAHpHZGAtFHMqBKG0Os-84" value="number" style="rounded=0;whiteSpace=wrap;html=1;align=left;fontStyle=0;fontFamily=Trebuchet MS;fontSize=14;spacing=5;" parent="1" vertex="1">
          <mxGeometry x="240" y="760" width="60" height="40" as="geometry" />
        </mxCell>
        <mxCell id="6sAHpHZGAtFHMqBKG0Os-85" value="" style="rounded=0;whiteSpace=wrap;html=1;align=left;fontStyle=0;fontFamily=Trebuchet MS;fontSize=14;spacing=5;" parent="1" vertex="1">
          <mxGeometry x="300" y="760" width="60" height="40" as="geometry" />
        </mxCell>
        <mxCell id="6sAHpHZGAtFHMqBKG0Os-86" value="Y" style="rounded=0;whiteSpace=wrap;html=1;align=left;fontStyle=0;fontFamily=Trebuchet MS;fontSize=14;spacing=5;" parent="1" vertex="1">
          <mxGeometry x="360" y="760" width="80" height="40" as="geometry" />
        </mxCell>
        <mxCell id="6sAHpHZGAtFHMqBKG0Os-87" value="Range: &amp;gt;=1 and &amp;lt;=5" style="rounded=0;whiteSpace=wrap;html=1;align=left;fontStyle=0;fontFamily=Trebuchet MS;fontSize=14;spacing=5;" parent="1" vertex="1">
          <mxGeometry x="440" y="760" width="160" height="40" as="geometry" />
        </mxCell>
      </root>
    </mxGraphModel>
  </diagram>
</mxfile>
